<svg width="17" height="14" viewBox="0 0 17 14" fill="none" xmlns="http://www.w3.org/2000/svg">
<path d="M0 6.77344C0 7.15313 0.282154 7.46693 0.648229 7.51659L0.75 7.52344L15.75 7.52344C16.1642 7.52344 16.5 7.18765 16.5 6.77344C16.5 6.39374 16.2178 6.07995 15.8518 6.03028L15.75 6.02344L0.75 6.02344C0.335786 6.02344 0 6.35922 0 6.77344Z" fill="#072127"/>
<path d="M9.17394 12.2675C8.88041 12.5598 8.87939 13.0347 9.17165 13.3282C9.43735 13.595 9.85396 13.6201 10.148 13.4029L10.2323 13.3305L16.2823 7.30647C16.5499 7.03998 16.5743 6.62187 16.3553 6.3278L16.2824 6.24357L10.2324 0.218573C9.93886 -0.0737131 9.46398 -0.0727299 9.1717 0.220769C8.90598 0.487586 8.88264 0.904299 9.1011 1.19746L9.17389 1.28143L14.6899 6.7753L9.17394 12.2675Z" fill="#072127"/>
</svg>
