<svg width="17" height="14" viewBox="0 0 17 14" fill="none" xmlns="http://www.w3.org/2000/svg">
<path d="M16.5031 6.77344C16.5031 7.15313 16.221 7.46693 15.8549 7.51659L15.7531 7.52344L0.753124 7.52344C0.338911 7.52344 0.00312424 7.18765 0.00312424 6.77344C0.00312424 6.39374 0.285278 6.07995 0.651354 6.03028L0.753124 6.02344L15.7531 6.02344C16.1673 6.02344 16.5031 6.35922 16.5031 6.77344Z" fill="#072127"/>
<path d="M7.32919 12.2675C7.62271 12.5598 7.62373 13.0347 7.33147 13.3282C7.06578 13.595 6.64917 13.6201 6.35509 13.4029L6.27081 13.3305L0.220812 7.30647C-0.0468245 7.03998 -0.0711713 6.62187 0.147783 6.3278L0.220768 6.24357L6.27077 0.218573C6.56427 -0.0737131 7.03914 -0.0727299 7.33143 0.220769C7.59714 0.487586 7.62048 0.904299 7.40202 1.19746L7.32923 1.28143L1.8132 6.7753L7.32919 12.2675Z" fill="#072127"/>
</svg>
