<svg width="152" height="107" viewBox="0 0 152 107" fill="none" xmlns="http://www.w3.org/2000/svg">
<g filter="url(#filter0_d_1_8204)">
<path d="M50.2347 20H57.828H67.0319C75.4458 20 82.2666 26.8208 82.2666 35.2347V51.6413C82.2666 60.0552 75.4458 66.876 67.0319 66.876H50.2347C41.8208 66.876 35 60.0552 35 51.6413V35.2347C35 26.8208 41.8208 20 50.2347 20Z" fill="#6DCDE5"/>
</g>
<g filter="url(#filter1_d_1_8204)">
<path fill-rule="evenodd" clip-rule="evenodd" d="M65.1102 49.5461C64.7727 49.5461 64.4991 49.2716 64.4991 48.9341C64.4991 46.5698 66.4152 44.6537 68.7795 44.6537C69.117 44.6537 69.3915 44.9273 69.3915 45.2648V47.234V48.9341C69.3915 49.2716 69.117 49.5461 68.7795 49.5461H65.1102ZM48.3108 49.5461C48.0651 49.5461 47.8662 49.3463 47.8662 49.1006C47.8662 46.6445 49.857 44.6537 52.3131 44.6537H56.1399H62.0979C62.3436 44.6537 62.5425 44.8526 62.5425 45.0983C62.5425 47.5544 60.5508 49.5461 58.0947 49.5461H48.3108ZM55.5837 42.6971C51.4248 42.6971 48.3108 42.6971 48.3108 42.6971C48.0651 42.6971 47.8662 42.4982 47.8662 42.2525C47.8662 39.7964 49.857 37.8047 52.3131 37.8047H68.946C69.1917 37.8047 69.3915 38.0036 69.3915 38.2493C69.3915 40.7054 67.3998 42.6971 64.9437 42.6971C64.9437 42.6971 59.7417 42.6971 55.5837 42.6971Z" fill="white"/>
</g>
<g clip-path="url(#clip0_1_8204)">
<path fill-rule="evenodd" clip-rule="evenodd" d="M96.2156 46.5245C95.4823 46.5245 94.8922 46.3009 94.4451 45.8538C93.998 45.4067 93.7744 44.8165 93.7744 44.0833V29.7313C93.7744 28.998 93.9711 28.4347 94.3646 28.0412C94.758 27.6478 95.3214 27.451 96.0546 27.451H105.068C105.873 27.451 106.463 27.6075 106.839 27.9205C107.214 28.2335 107.402 28.7298 107.402 29.4093C107.402 30.0711 107.21 30.5539 106.825 30.858C106.441 31.162 105.855 31.314 105.068 31.314H98.6299V34.8014H104.532C105.319 34.8014 105.904 34.9624 106.289 35.2843C106.673 35.6062 106.866 36.098 106.866 36.7597C106.866 37.4214 106.673 37.9043 106.289 38.2083C105.904 38.5124 105.319 38.6644 104.532 38.6644H98.6299V44.0833C98.6299 44.8344 98.4109 45.4291 97.9727 45.8672C97.5345 46.3054 96.9488 46.5245 96.2156 46.5245ZM110.81 46.5247C110.131 46.5247 109.563 46.3414 109.107 45.9747C108.651 45.6081 108.423 45.0582 108.423 44.3249V35.0967C108.423 34.3635 108.651 33.8135 109.107 33.4469C109.563 33.0803 110.131 32.897 110.81 32.897C111.49 32.897 112.058 33.0803 112.514 33.4469C112.97 33.8135 113.198 34.3635 113.198 35.0967V44.3249C113.198 45.0582 112.97 45.6081 112.514 45.9747C112.058 46.3414 111.49 46.5247 110.81 46.5247ZM110.81 31.0189C110.005 31.0189 109.365 30.8088 108.892 30.3885C108.418 29.9682 108.181 29.4093 108.181 28.7119C108.181 28.0144 108.418 27.46 108.892 27.0486C109.365 26.6373 110.005 26.4316 110.81 26.4316C111.597 26.4316 112.231 26.6373 112.714 27.0486C113.197 27.46 113.439 28.0144 113.439 28.7119C113.439 29.4093 113.202 29.9682 112.728 30.3885C112.254 30.8088 111.614 31.0189 110.81 31.0189ZM117.811 46.5245C117.131 46.5245 116.563 46.3411 116.107 45.9745C115.651 45.6079 115.423 45.058 115.423 44.3247V29.5435C115.423 28.8102 115.651 28.2558 116.107 27.8803C116.563 27.5047 117.131 27.3169 117.811 27.3169C118.49 27.3169 119.058 27.5047 119.514 27.8803C119.97 28.2558 120.198 28.8102 120.198 29.5435V44.3247C120.198 45.058 119.97 45.6079 119.514 45.9745C119.058 46.3411 118.49 46.5245 117.811 46.5245ZM129.079 46.5783C127.631 46.5783 126.357 46.2966 125.257 45.7332C124.157 45.1699 123.307 44.3696 122.708 43.3323C122.109 42.295 121.81 41.0789 121.81 39.6839C121.81 38.289 122.109 37.0773 122.708 36.049C123.307 35.0207 124.152 34.2293 125.243 33.6749C126.334 33.1205 127.613 32.8433 129.079 32.8433C130.546 32.8433 131.825 33.1205 132.916 33.6749C134.006 34.2293 134.851 35.0207 135.451 36.049C136.05 37.0773 136.349 38.289 136.349 39.6839C136.349 41.0789 136.05 42.295 135.451 43.3323C134.851 44.3696 134.006 45.1699 132.916 45.7332C131.825 46.2966 130.546 46.5783 129.079 46.5783ZM129.077 43.0103C130.776 43.0103 131.625 41.9015 131.625 39.6839C131.625 37.4662 130.776 36.3574 129.077 36.3574C127.378 36.3574 126.528 37.4662 126.528 39.6839C126.528 41.9015 127.378 43.0103 129.077 43.0103ZM146.865 32.8433C148.439 32.8433 149.61 33.3127 150.379 34.2516C151.148 35.1906 151.533 36.6168 151.533 38.5304V44.3249C151.533 45.0045 151.318 45.541 150.889 45.9344C150.459 46.3279 149.878 46.5246 149.145 46.5246C148.412 46.5246 147.831 46.3279 147.401 45.9344C146.972 45.541 146.757 45.0045 146.757 44.3249V38.745C146.757 37.9581 146.619 37.3858 146.342 37.0281C146.064 36.6705 145.649 36.4916 145.094 36.4916C144.379 36.4916 143.811 36.7196 143.391 37.1757C142.971 37.6317 142.76 38.2443 142.76 39.0133V44.3249C142.76 45.0045 142.546 45.541 142.117 45.9344C141.687 46.3279 141.106 46.5246 140.373 46.5246C139.64 46.5246 139.058 46.3279 138.629 45.9344C138.2 45.541 137.985 45.0045 137.985 44.3249V35.043C137.985 34.4171 138.209 33.9029 138.656 33.5005C139.103 33.0981 139.684 32.8969 140.4 32.8969C141.079 32.8969 141.62 33.0847 142.023 33.4603C142.425 33.8358 142.626 34.3276 142.626 34.9357C143.091 34.2561 143.69 33.7375 144.424 33.3798C145.157 33.0221 145.971 32.8433 146.865 32.8433Z" fill="#072127"/>
<path fill-rule="evenodd" clip-rule="evenodd" d="M105.371 52.051C105.421 51.9194 105.495 51.8207 105.594 51.7549C105.692 51.6891 105.803 51.6563 105.927 51.6562C106.083 51.6563 106.221 51.7077 106.34 51.8105C106.459 51.9133 106.519 52.0469 106.519 52.2114C106.519 52.3019 106.502 52.3842 106.47 52.4582L103.743 60.0826C103.685 60.2225 103.595 60.3294 103.472 60.4034C103.348 60.4774 103.212 60.5144 103.064 60.5144C102.925 60.5144 102.793 60.4774 102.67 60.4034C102.546 60.3294 102.46 60.2225 102.411 60.0826L100.165 53.7166L97.8704 60.0826C97.8211 60.2225 97.7347 60.3294 97.6113 60.4034C97.4879 60.4774 97.3563 60.5144 97.2165 60.5144C97.0685 60.5144 96.9348 60.4774 96.8156 60.4034C96.6963 60.3294 96.6079 60.2225 96.5503 60.0826L93.8238 52.4582C93.7909 52.3842 93.7744 52.3019 93.7744 52.2114C93.7744 52.0469 93.8361 51.9133 93.9595 51.8105C94.0828 51.7077 94.2309 51.6562 94.4036 51.6562C94.527 51.6563 94.6401 51.6891 94.7429 51.7549C94.8457 51.8207 94.9218 51.9194 94.9711 52.051L97.2535 58.6145L99.573 52.1127C99.6223 51.9729 99.7025 51.866 99.8135 51.792C99.9246 51.7179 100.046 51.6809 100.177 51.6809C100.309 51.6809 100.428 51.72 100.535 51.7981C100.642 51.8763 100.724 51.9852 100.782 52.1251L103.052 58.6762L105.371 52.051ZM111.591 58.9104C111.706 58.9104 111.8 58.9557 111.874 59.0462C111.948 59.1366 111.985 59.2518 111.985 59.3916C111.985 59.6301 111.837 59.8316 111.541 59.9961C111.253 60.1606 110.939 60.2881 110.597 60.3786C110.256 60.4691 109.929 60.5143 109.617 60.5143C108.662 60.5143 107.91 60.2367 107.359 59.6815C106.808 59.1264 106.532 58.3676 106.532 57.4053C106.532 56.7884 106.654 56.2415 106.896 55.7644C107.139 55.2874 107.48 54.9173 107.92 54.6541C108.36 54.3909 108.86 54.2593 109.419 54.2593C110.225 54.2593 110.863 54.5184 111.331 55.0365C111.8 55.5547 112.035 56.2538 112.035 57.1339C112.035 57.4629 111.887 57.6274 111.591 57.6274H107.778C107.861 58.9022 108.473 59.5396 109.617 59.5396C109.921 59.5396 110.184 59.4985 110.406 59.4163C110.628 59.334 110.863 59.2271 111.109 59.0955C111.134 59.0791 111.202 59.0441 111.313 58.9906C111.424 58.9372 111.517 58.9104 111.591 58.9104ZM109.44 55.1724C108.963 55.1724 108.58 55.3245 108.293 55.6288C108.005 55.9332 107.832 56.3609 107.774 56.9119H110.957C110.933 56.3526 110.791 55.9229 110.532 55.6227C110.273 55.3225 109.909 55.1724 109.44 55.1724ZM116.39 54.2594C116.916 54.2594 117.381 54.3869 117.784 54.6419C118.187 54.8968 118.501 55.2587 118.728 55.7276C118.954 56.1964 119.067 56.7433 119.067 57.3684C119.067 57.9853 118.954 58.5322 118.728 59.0093C118.501 59.4863 118.185 59.8564 117.778 60.1196C117.37 60.3828 116.908 60.5144 116.39 60.5144C115.937 60.5144 115.538 60.4178 115.193 60.2245C114.847 60.0312 114.584 59.7536 114.403 59.3917V59.8852C114.403 60.0662 114.348 60.2122 114.237 60.3232C114.126 60.4342 113.976 60.4898 113.786 60.4898C113.597 60.4898 113.445 60.4342 113.33 60.3232C113.215 60.2122 113.157 60.0662 113.157 59.8852V52.2608C113.157 52.0798 113.217 51.9359 113.336 51.829C113.455 51.722 113.61 51.6686 113.799 51.6686C113.98 51.6686 114.126 51.72 114.237 51.8228C114.348 51.9256 114.403 52.0634 114.403 52.2361V55.3944C114.584 55.0326 114.847 54.7529 115.193 54.5555C115.538 54.3581 115.937 54.2594 116.39 54.2594ZM116.094 59.5275C116.628 59.5275 117.046 59.3383 117.346 58.96C117.646 58.5816 117.796 58.0511 117.796 57.3685C117.796 56.694 117.648 56.1738 117.352 55.8078C117.056 55.4418 116.636 55.2588 116.094 55.2588C115.551 55.2588 115.133 55.4438 114.841 55.814C114.549 56.1841 114.403 56.7105 114.403 57.3931C114.403 58.0758 114.549 58.6022 114.841 58.9723C115.133 59.3424 115.551 59.5275 116.094 59.5275ZM126.838 60.5268C125.679 60.5268 124.799 60.2266 124.198 59.6262C123.598 59.0257 123.298 58.1416 123.298 56.9736V52.3101C123.298 52.1127 123.355 51.9565 123.47 51.8413C123.585 51.7262 123.738 51.6686 123.927 51.6686C124.116 51.6686 124.268 51.7262 124.383 51.8413C124.498 51.9565 124.556 52.1127 124.556 52.3101V57.06C124.556 57.8578 124.747 58.4623 125.13 58.8736C125.512 59.2848 126.082 59.4904 126.838 59.4904C127.587 59.4904 128.154 59.2848 128.541 58.8736C128.928 58.4623 129.121 57.8578 129.121 57.06V52.3101C129.121 52.121 129.178 51.9667 129.294 51.8475C129.409 51.7282 129.561 51.6686 129.75 51.6686C129.939 51.6686 130.091 51.7262 130.207 51.8413C130.322 51.9565 130.379 52.1127 130.379 52.3101V56.9736C130.379 58.1333 130.077 59.0155 129.472 59.62C128.868 60.2245 127.99 60.5268 126.838 60.5268ZM132.575 60.4898C132.394 60.4898 132.244 60.4404 132.125 60.3417C132.006 60.243 131.946 60.095 131.946 59.8976V54.8886C131.946 54.6912 132.006 54.5411 132.125 54.4383C132.244 54.3355 132.394 54.2841 132.575 54.2841C132.756 54.2841 132.904 54.3355 133.019 54.4383C133.135 54.5411 133.192 54.6912 133.192 54.8886V59.8976C133.192 60.095 133.135 60.243 133.019 60.3417C132.904 60.4404 132.756 60.4898 132.575 60.4898ZM132.575 53.075C132.337 53.075 132.148 53.0092 132.008 52.8776C131.868 52.746 131.798 52.5733 131.798 52.3595C131.798 52.1456 131.868 51.975 132.008 51.8475C132.148 51.72 132.337 51.6563 132.575 51.6562C132.806 51.6563 132.993 51.72 133.137 51.8475C133.281 51.975 133.353 52.1456 133.353 52.3595C133.353 52.5733 133.283 52.746 133.143 52.8776C133.003 53.0092 132.814 53.075 132.575 53.075ZM144.322 59.4656C144.462 59.5972 144.532 59.7412 144.532 59.8974C144.532 60.0537 144.472 60.1894 144.353 60.3046C144.233 60.4197 144.096 60.4773 143.939 60.4773C143.783 60.4773 143.639 60.4115 143.508 60.2799L139.115 56.3196V59.8481C139.115 60.0455 139.06 60.2018 138.949 60.3169C138.838 60.4321 138.68 60.4896 138.474 60.4896C138.285 60.4896 138.133 60.4321 138.017 60.3169C137.902 60.2018 137.845 60.0455 137.845 59.8481V52.31C137.845 52.1208 137.902 51.9666 138.017 51.8473C138.133 51.7281 138.285 51.6685 138.474 51.6685C138.671 51.6685 138.828 51.726 138.943 51.8412C139.058 51.9563 139.115 52.1126 139.115 52.31V55.6904L143.323 51.8535C143.438 51.7384 143.573 51.6808 143.73 51.6808C143.886 51.6808 144.022 51.7384 144.137 51.8535C144.252 51.9687 144.309 52.1003 144.309 52.2483C144.309 52.4046 144.24 52.5485 144.1 52.6801L140.423 55.9618L144.322 59.4656ZM145.997 60.4897C145.816 60.4897 145.666 60.4404 145.547 60.3417C145.428 60.243 145.368 60.0949 145.368 59.8975V54.8886C145.368 54.6912 145.428 54.5411 145.547 54.4383C145.666 54.3355 145.816 54.2841 145.997 54.2841C146.178 54.2841 146.326 54.3355 146.442 54.4383C146.557 54.5411 146.614 54.6912 146.614 54.8886V59.8975C146.614 60.0949 146.557 60.243 146.442 60.3417C146.326 60.4404 146.178 60.4897 145.997 60.4897ZM145.997 53.075C145.758 53.075 145.569 53.0092 145.429 52.8776C145.29 52.746 145.22 52.5733 145.22 52.3595C145.22 52.1456 145.29 51.975 145.429 51.8475C145.569 51.72 145.758 51.6563 145.997 51.6562C146.227 51.6563 146.414 51.72 146.558 51.8475C146.702 51.975 146.774 52.1456 146.774 52.3595C146.774 52.5733 146.704 52.746 146.564 52.8776C146.425 53.0092 146.236 53.075 145.997 53.075ZM151.057 59.5398C151.238 59.5563 151.368 59.6036 151.446 59.6817C151.524 59.7598 151.563 59.8688 151.563 60.0086C151.563 60.1731 151.499 60.2986 151.372 60.3849C151.244 60.4713 151.057 60.5062 150.811 60.4898L150.477 60.4651C149.811 60.4158 149.314 60.2122 148.985 59.8544C148.656 59.4966 148.491 58.9682 148.491 58.2691V55.3698H147.751C147.389 55.3698 147.208 55.2094 147.208 54.8887C147.208 54.7406 147.255 54.6234 147.35 54.537C147.444 54.4507 147.578 54.4075 147.751 54.4075H148.491V53.1368C148.491 52.9476 148.547 52.7995 148.658 52.6926C148.769 52.5857 148.919 52.5322 149.108 52.5322C149.297 52.5322 149.449 52.5857 149.564 52.6926C149.68 52.7995 149.737 52.9476 149.737 53.1368V54.4075H150.959C151.131 54.4075 151.265 54.4507 151.36 54.537C151.454 54.6234 151.501 54.7406 151.501 54.8887C151.501 55.0449 151.454 55.1642 151.36 55.2464C151.265 55.3287 151.131 55.3698 150.959 55.3698H149.737V58.3554C149.737 58.742 149.817 59.0258 149.978 59.2067C150.138 59.3877 150.383 59.4905 150.712 59.5152L151.057 59.5398Z" fill="#072127"/>
</g>
<defs>
<filter id="filter0_d_1_8204" x="0" y="0" width="107.267" height="106.876" filterUnits="userSpaceOnUse" color-interpolation-filters="sRGB">
<feFlood flood-opacity="0" result="BackgroundImageFix"/>
<feColorMatrix in="SourceAlpha" type="matrix" values="0 0 0 0 0 0 0 0 0 0 0 0 0 0 0 0 0 0 127 0" result="hardAlpha"/>
<feOffset dx="-5" dy="10"/>
<feGaussianBlur stdDeviation="15"/>
<feColorMatrix type="matrix" values="0 0 0 0 0.427451 0 0 0 0 0.803922 0 0 0 0 0.898039 0 0 0 0.25 0"/>
<feBlend mode="normal" in2="BackgroundImageFix" result="effect1_dropShadow_1_8204"/>
<feBlend mode="normal" in="SourceGraphic" in2="effect1_dropShadow_1_8204" result="shape"/>
</filter>
<filter id="filter1_d_1_8204" x="27.8662" y="27.8047" width="61.5254" height="51.7412" filterUnits="userSpaceOnUse" color-interpolation-filters="sRGB">
<feFlood flood-opacity="0" result="BackgroundImageFix"/>
<feColorMatrix in="SourceAlpha" type="matrix" values="0 0 0 0 0 0 0 0 0 0 0 0 0 0 0 0 0 0 127 0" result="hardAlpha"/>
<feOffset dy="10"/>
<feGaussianBlur stdDeviation="10"/>
<feColorMatrix type="matrix" values="0 0 0 0 0 0 0 0 0 0 0 0 0 0 0 0 0 0 0.160784 0"/>
<feBlend mode="normal" in2="BackgroundImageFix" result="effect1_dropShadow_1_8204"/>
<feBlend mode="normal" in="SourceGraphic" in2="effect1_dropShadow_1_8204" result="shape"/>
</filter>
<clipPath id="clip0_1_8204">
<rect width="57.788" height="34.0955" fill="white" transform="translate(93.7744 26.4316)"/>
</clipPath>
</defs>
</svg>
