<svg width="28" height="28" viewBox="0 0 28 28" fill="none" xmlns="http://www.w3.org/2000/svg">
<path d="M18.4107 2.33301H9.59065C5.18065 2.33301 4.08398 3.51134 4.08398 8.21301V21.3497C4.08398 24.453 5.78732 25.188 7.85232 22.9713L7.86398 22.9597C8.82065 21.9447 10.279 22.0263 11.1073 23.1347L12.2857 24.7097C13.2307 25.958 14.759 25.958 15.704 24.7097L16.8823 23.1347C17.7223 22.0147 19.1807 21.933 20.1373 22.9597C22.214 25.1763 23.9057 24.4413 23.9057 21.338V8.21301C23.9173 3.51134 22.8207 2.33301 18.4107 2.33301ZM9.07732 13.9997C8.43565 13.9997 7.91065 13.4747 7.91065 12.833C7.91065 12.1913 8.43565 11.6663 9.07732 11.6663C9.71899 11.6663 10.244 12.1913 10.244 12.833C10.244 13.4747 9.71899 13.9997 9.07732 13.9997ZM9.07732 9.33301C8.43565 9.33301 7.91065 8.80801 7.91065 8.16634C7.91065 7.52467 8.43565 6.99967 9.07732 6.99967C9.71899 6.99967 10.244 7.52467 10.244 8.16634C10.244 8.80801 9.71899 9.33301 9.07732 9.33301ZM18.9357 13.708H12.519C12.0407 13.708 11.644 13.3113 11.644 12.833C11.644 12.3547 12.0407 11.958 12.519 11.958H18.9357C19.414 11.958 19.8107 12.3547 19.8107 12.833C19.8107 13.3113 19.414 13.708 18.9357 13.708ZM18.9357 9.04134H12.519C12.0407 9.04134 11.644 8.64467 11.644 8.16634C11.644 7.68801 12.0407 7.29134 12.519 7.29134H18.9357C19.414 7.29134 19.8107 7.68801 19.8107 8.16634C19.8107 8.64467 19.414 9.04134 18.9357 9.04134Z" fill="#6DCDE5"/>
</svg>
