<svg width="12" height="12" viewBox="0 0 12 12" fill="none" xmlns="http://www.w3.org/2000/svg">
<path d="M5.49527 0.265211C5.61018 -0.0884535 6.11052 -0.0884532 6.22543 0.265211L7.34577 3.71323C7.39716 3.8714 7.54455 3.97848 7.71085 3.97848H11.3363C11.7082 3.97848 11.8628 4.45433 11.5619 4.67291L8.62888 6.80391C8.49434 6.90166 8.43804 7.07492 8.48944 7.23309L9.60977 10.6811C9.72468 11.0348 9.31989 11.3289 9.01905 11.1103L6.08599 8.9793C5.95144 8.88155 5.76926 8.88155 5.63472 8.9793L2.70165 11.1103C2.40081 11.3289 1.99603 11.0348 2.11094 10.6811L3.23127 7.23309C3.28266 7.07492 3.22636 6.90166 3.09182 6.80391L0.158755 4.67291C-0.14209 4.45433 0.012524 3.97848 0.384389 3.97848H4.00985C4.17616 3.97848 4.32355 3.8714 4.37494 3.71323L5.49527 0.265211Z" fill="#F7D102"/>
</svg>
