<svg width="18" height="18" viewBox="0 0 18 18" fill="none" xmlns="http://www.w3.org/2000/svg">
<path d="M8.46512 0.304909C8.64145 -0.101709 9.21809 -0.101709 9.39441 0.304909L11.5614 5.3022C11.6348 5.47143 11.7944 5.58738 11.978 5.60488L17.4004 6.12157C17.8416 6.16361 18.0197 6.71203 17.6875 7.00537L13.6045 10.6106C13.4662 10.7326 13.4052 10.9203 13.4453 11.1003L14.6295 16.4169C14.7259 16.8495 14.2594 17.1885 13.8777 16.9631L9.18724 14.194C9.0284 14.1002 8.83113 14.1002 8.67229 14.194L3.98182 16.9631C3.60017 17.1885 3.13366 16.8495 3.23001 16.4169L4.41421 11.1003C4.45431 10.9203 4.39335 10.7326 4.25508 10.6106L0.172013 7.00537C-0.160216 6.71203 0.0179757 6.16361 0.459179 6.12157L5.88152 5.60488C6.06515 5.58738 6.22474 5.47143 6.29812 5.3022L8.46512 0.304909Z" fill="#FFB71B"/>
</svg>
