<svg width="20" height="20" viewBox="0 0 20 20" fill="none" xmlns="http://www.w3.org/2000/svg">
<path d="M16.7911 17.3608H3.20878C2.39593 17.3597 1.61668 17.0363 1.04196 16.4615C0.467241 15.8867 0.143974 15.1074 0.143066 14.2945V5.70536C0.143974 4.89256 0.467259 4.11331 1.042 3.53858C1.61673 2.96384 2.39598 2.64056 3.20878 2.63965H16.7911C17.6039 2.64056 18.3832 2.96382 18.9581 3.53854C19.5329 4.11326 19.8563 4.89251 19.8574 5.70536V14.2945C19.8564 15.1075 19.5331 15.8869 18.9583 16.4617C18.3834 17.0365 17.604 17.3599 16.7911 17.3608ZM3.20878 4.06822C2.77472 4.06867 2.35857 4.2413 2.05165 4.54823C1.74472 4.85515 1.57209 5.2713 1.57164 5.70536V14.2945C1.57194 14.7287 1.7445 15.145 2.05145 15.452C2.35839 15.7591 2.77462 15.9318 3.20878 15.9322H16.7911C17.2253 15.9318 17.6416 15.7591 17.9486 15.452C18.2556 15.145 18.4283 14.7287 18.4288 14.2945V5.70536C18.4282 5.27125 18.2554 4.8551 17.9484 4.54819C17.6414 4.24129 17.2252 4.06867 16.7911 4.06822H3.20878Z" fill="white"/>
<path d="M9.99127 11.9225C9.39196 11.9284 8.80815 11.7321 8.33413 11.3653L0.695272 5.27789C0.54713 5.15975 0.451984 4.98761 0.430766 4.79932C0.409547 4.61103 0.463994 4.42203 0.58213 4.27389C0.700265 4.12574 0.87241 4.0306 1.0607 4.00938C1.24898 3.98816 1.43799 4.04261 1.58613 4.16074L9.2227 10.2482C9.44829 10.4082 9.7182 10.4938 9.99477 10.4931C10.2713 10.4924 10.5408 10.4053 10.7656 10.2442L18.3078 4.1636C18.4552 4.04471 18.6438 3.98923 18.8321 4.00938C19.0204 4.02953 19.193 4.12364 19.3118 4.27103C19.4307 4.41841 19.4862 4.60699 19.4661 4.79528C19.4459 4.98356 19.3518 5.15614 19.2044 5.27503L11.6644 11.3556C11.1871 11.7288 10.5971 11.9287 9.99127 11.9225Z" fill="white"/>
</svg>
