<svg width="18" height="18" viewBox="0 0 18 18" fill="none" xmlns="http://www.w3.org/2000/svg">
<g clip-path="url(#clip0_1_4075)">
<path d="M12.615 0.9375H5.385C4.20606 0.939483 3.07597 1.40869 2.24233 2.24233C1.40869 3.07597 0.939483 4.20606 0.9375 5.385V15.75C0.941398 16.0969 1.08093 16.4285 1.32623 16.6738C1.57153 16.9191 1.90311 17.0586 2.25 17.0625H12.6C13.7789 17.0605 14.909 16.5913 15.7427 15.7577C16.5763 14.924 17.0455 13.7939 17.0475 12.615V5.385C17.0455 4.20865 16.5784 3.08082 15.748 2.24761C14.9176 1.4144 13.7913 0.94344 12.615 0.9375V0.9375ZM15.9375 12.615C15.9355 13.4956 15.5848 14.3395 14.9622 14.9622C14.3395 15.5848 13.4956 15.9355 12.615 15.9375H2.25C2.20142 15.934 2.15573 15.9131 2.12129 15.8787C2.08686 15.8443 2.06598 15.7986 2.0625 15.75V5.385C2.06448 4.50443 2.41517 3.66049 3.03783 3.03783C3.66049 2.41517 4.50443 2.06448 5.385 2.0625H12.615C13.4956 2.06448 14.3395 2.41517 14.9622 3.03783C15.5848 3.66049 15.9355 4.50443 15.9375 5.385V12.615ZM12.5625 5.295L11.3025 4.32C11.0958 4.15968 10.859 4.04257 10.6062 3.97564C10.3534 3.90872 10.0896 3.89334 9.83073 3.93043C9.57182 3.96751 9.32302 4.05631 9.09913 4.19152C8.87524 4.32674 8.68084 4.50561 8.5275 4.7175L5.055 9.4125C4.82307 9.72882 4.69234 10.108 4.68 10.5V12.39C4.67707 12.6498 4.73528 12.9067 4.84993 13.1399C4.96458 13.3731 5.13245 13.5761 5.34 13.7325C5.61681 13.9408 5.95358 14.0539 6.3 14.055C6.451 14.0625 6.60233 14.0499 6.75 14.0175L8.5125 13.5C8.89872 13.384 9.23606 13.1442 9.4725 12.8175L12.945 8.1225C13.2654 7.69542 13.4049 7.15943 13.3333 6.63035C13.2617 6.10128 12.9848 5.62161 12.5625 5.295V5.295ZM9.9975 5.0475H10.11C10.2941 5.04858 10.473 5.10908 10.62 5.22L11.8725 6.1875C12.0573 6.33392 12.1779 6.54654 12.2087 6.78033C12.2395 7.01411 12.1781 7.25071 12.0375 7.44L11.6475 7.9725C11.0339 8.01658 10.4255 7.83401 9.93748 7.45939C9.44952 7.08478 9.11595 6.54416 9 5.94L9.4125 5.385C9.48068 5.29066 9.56806 5.21181 9.66888 5.15365C9.76971 5.09548 9.8817 5.0593 9.9975 5.0475V5.0475ZM8.5725 12.1275C8.47823 12.2588 8.34407 12.3561 8.19 12.405L6.4125 12.9375C6.34185 12.9614 6.26629 12.9671 6.19286 12.954C6.11944 12.9408 6.05051 12.9094 5.9925 12.8625C5.92582 12.8133 5.87194 12.7487 5.8354 12.6743C5.79885 12.6 5.78071 12.5179 5.7825 12.435V10.545C5.80267 10.3705 5.879 10.2073 6 10.08L8.25 7.0275C8.48611 7.55567 8.85071 8.01631 9.31054 8.36741C9.77037 8.7185 10.3108 8.94887 10.8825 9.0375L8.5725 12.1275Z" fill="#072127"/>
</g>
<defs>
<clipPath id="clip0_1_4075">
<rect width="18" height="18" fill="white"/>
</clipPath>
</defs>
</svg>
