<svg width="14" height="14" viewBox="0 0 14 14" fill="none" xmlns="http://www.w3.org/2000/svg">
<path d="M6.98109 4.33498C6.98109 4.09021 6.77726 3.89177 6.52581 3.89177C6.27436 3.89177 6.07052 4.09021 6.07052 4.33498L6.07052 5.94558C6.07051 6.26104 6.0705 6.52935 6.09305 6.75203C6.11707 6.98925 6.16916 7.20911 6.29418 7.41991C6.4192 7.6307 6.58875 7.78454 6.78778 7.9234C6.97461 8.05375 7.21331 8.1879 7.49397 8.34562L7.87537 8.55998C8.09314 8.68236 8.37159 8.60973 8.49731 8.39774C8.62303 8.18576 8.54842 7.91469 8.33065 7.79231L7.96757 7.58825C7.66364 7.41743 7.46427 7.30481 7.31822 7.20291C7.18031 7.1067 7.1204 7.04016 7.08276 6.97669C7.04512 6.91322 7.01588 6.82945 6.99923 6.66507C6.98161 6.491 6.98109 6.26661 6.98109 5.92497V4.33498Z" fill="#232323"/>
<path fill-rule="evenodd" clip-rule="evenodd" d="M6.52581 0.346089C2.9217 0.346089 0 3.19028 0 6.69877C0 10.2073 2.9217 13.0515 6.52581 13.0515C10.1299 13.0515 13.0516 10.2073 13.0516 6.69877C13.0516 3.19028 10.1299 0.346089 6.52581 0.346089ZM0.910578 6.69877C0.910578 3.67984 3.4246 1.23251 6.52581 1.23251C9.62701 1.23251 12.141 3.67984 12.141 6.69877C12.141 9.71771 9.62701 12.165 6.52581 12.165C3.4246 12.165 0.910578 9.71771 0.910578 6.69877Z" fill="#232323"/>
</svg>
