<svg width="204" height="137" viewBox="0 0 204 137" fill="none" xmlns="http://www.w3.org/2000/svg">
<path d="M15.443 97.437C17.9588 99.1765 19.7681 101.314 20.7492 103.704C19.0753 68.8679 63.9802 43.5964 116.453 46.7271C161.852 49.9126 192.248 74.9683 203.144 101.8C203.182 101.9 203.187 102.008 203.156 102.116C203.126 102.225 203.061 102.332 202.967 102.43C202.873 102.529 202.751 102.617 202.608 102.69C202.466 102.762 202.307 102.817 202.141 102.85C201.859 102.908 201.571 102.903 201.327 102.835C201.083 102.767 200.899 102.641 200.807 102.479C187.125 78.2016 157.17 55.2941 114.082 53.5426C68.1536 53.4736 34.7186 74.5709 24.0871 103.736C28.7355 100.754 34.1469 98.3376 39.9706 96.6444C40.0802 96.6118 40.1976 96.6031 40.3029 96.6198C40.4082 96.6365 40.4949 96.6777 40.5483 96.7362C40.6017 96.7947 40.6185 96.867 40.5959 96.9409C40.5734 97.0147 40.5128 97.0856 40.4244 97.1414C34.4418 101.056 28.7968 104.743 23.2422 109.809C19.8955 112.87 18.4304 113.994 17.7211 110.105C16.8597 105.382 15.9155 100.205 11.5363 96.5866C11.4577 96.5107 11.4268 96.415 11.4486 96.3154C11.4705 96.2158 11.5438 96.1182 11.6565 96.0388C11.7691 95.9594 11.9143 95.903 12.0679 95.8789C12.2216 95.8548 12.3745 95.8645 12.5014 95.9064C13.5955 96.3264 14.5832 96.8403 15.443 97.437Z" fill="#6DCDE5"/>
<path d="M154.91 41.5487C133.843 27.8215 103.496 23.0488 81.0833 35.4087C80.972 35.478 80.8919 35.5815 80.8572 35.7006C80.8226 35.8197 80.8357 35.9467 80.8942 36.0589C80.9527 36.171 81.0527 36.261 81.1765 36.3127C81.3002 36.3643 81.4395 36.3743 81.5695 36.3409C105.544 29.3538 131.191 33.8223 154.393 42.441C154.52 42.4825 154.658 42.4812 154.783 42.4374C154.908 42.3937 155.012 42.3103 155.074 42.2024C155.137 42.0945 155.155 41.9692 155.125 41.8493C155.095 41.7294 155.019 41.6228 154.91 41.5487Z" fill="#6DCDE5"/>
<path d="M163.063 47.1198C165.222 49.4299 168.054 51.1339 171.224 52.0292C171.34 52.0651 171.465 52.0695 171.584 52.042C171.702 52.0144 171.809 51.9562 171.891 51.8741C171.973 51.7921 172.027 51.6899 172.047 51.5797C172.066 51.4696 172.05 51.3563 172.001 51.2534C171.196 49.8096 169.992 48.5796 168.509 47.6867C167.027 46.7938 165.318 46.2693 163.554 46.1657C163.431 46.1623 163.31 46.1915 163.206 46.2497C163.102 46.3079 163.019 46.3926 162.967 46.4936C162.915 46.5946 162.896 46.7075 162.913 46.8186C162.931 46.9298 162.983 47.0344 163.063 47.1198Z" fill="#6DCDE5"/>
</svg>
