<svg width="32" height="32" viewBox="0 0 32 32" fill="none" xmlns="http://www.w3.org/2000/svg">
<rect width="32" height="32" rx="8" fill="white"/>
<path d="M12.607 17.103C12.607 17.1117 12.607 17.1203 12.607 17.129C12.607 17.4063 12.5203 17.6317 12.347 17.805C12.1737 17.9783 11.944 18.065 11.658 18.065C11.3633 18.065 11.125 17.9783 10.943 17.805C10.7697 17.623 10.683 17.3847 10.683 17.09V17.064C10.7003 16.7953 10.7957 16.5787 10.969 16.414C11.151 16.2493 11.3807 16.167 11.658 16.167C11.944 16.167 12.1737 16.2537 12.347 16.427C12.5203 16.6003 12.607 16.8257 12.607 17.103ZM16.8726 17.103C16.8726 17.1117 16.8726 17.1203 16.8726 17.129C16.8726 17.4063 16.786 17.6317 16.6126 17.805C16.4393 17.9783 16.2096 18.065 15.9236 18.065C15.629 18.065 15.3906 17.9783 15.2086 17.805C15.0353 17.623 14.9486 17.3847 14.9486 17.09V17.064C14.966 16.7953 15.0613 16.5787 15.2346 16.414C15.4166 16.2493 15.6463 16.167 15.9236 16.167C16.2096 16.167 16.4393 16.2537 16.6126 16.427C16.786 16.6003 16.8726 16.8257 16.8726 17.103ZM21.1383 17.103C21.1383 17.1117 21.1383 17.1203 21.1383 17.129C21.1383 17.4063 21.0516 17.6317 20.8783 17.805C20.7049 17.9783 20.4753 18.065 20.1893 18.065C19.8946 18.065 19.6563 17.9783 19.4743 17.805C19.3009 17.623 19.2143 17.3847 19.2143 17.09V17.064C19.2316 16.7953 19.3269 16.5787 19.5003 16.414C19.6823 16.2493 19.9119 16.167 20.1893 16.167C20.4753 16.167 20.7049 16.2537 20.8783 16.427C21.0516 16.6003 21.1383 16.8257 21.1383 17.103Z" fill="#708387"/>
</svg>
