<svg width="24" height="24" viewBox="0 0 24 24" fill="none" xmlns="http://www.w3.org/2000/svg">
<path d="M23.7666 9.6498H22.8V9.6H12V14.4H18.7818C17.7924 17.1942 15.1338 19.2 12 19.2C8.0238 19.2 4.8 15.9762 4.8 12C4.8 8.0238 8.0238 4.8 12 4.8C13.8354 4.8 15.5052 5.4924 16.7766 6.6234L20.1708 3.2292C18.0276 1.2318 15.1608 0 12 0C5.373 0 0 5.373 0 12C0 18.627 5.373 24 12 24C18.627 24 24 18.627 24 12C24 11.1954 23.9172 10.41 23.7666 9.6498Z" fill="#FFC107"/>
<path d="M1.38281 6.4146L5.32541 9.306C6.39221 6.6648 8.97581 4.8 11.9992 4.8C13.8346 4.8 15.5044 5.4924 16.7758 6.6234L20.17 3.2292C18.0268 1.2318 15.16 0 11.9992 0C7.39001 0 3.39281 2.6022 1.38281 6.4146Z" fill="#FF3D00"/>
<path d="M11.9994 24.0001C15.099 24.0001 17.9154 22.8139 20.0448 20.8849L16.3308 17.7421C15.0857 18.6896 13.564 19.2018 11.9994 19.2001C8.87821 19.2001 6.22801 17.2099 5.22961 14.4325L1.31641 17.4475C3.30241 21.3337 7.33561 24.0001 11.9994 24.0001Z" fill="#4CAF50"/>
<path d="M23.7666 9.64981H22.8V9.60001H12V14.4H18.7818C18.3085 15.7299 17.456 16.8919 16.3296 17.7426L16.3314 17.7414L20.0454 20.8842C19.7826 21.123 24 18 24 12C24 11.1954 23.9172 10.41 23.7666 9.64981Z" fill="#1976D2"/>
</svg>
