<svg width="20" height="20" viewBox="0 0 20 20" fill="none" xmlns="http://www.w3.org/2000/svg">
<path d="M18.3106 15.2763C18.3106 15.5763 18.2439 15.8846 18.1023 16.1846C17.9606 16.4846 17.7773 16.768 17.5356 17.0346C17.1273 17.4846 16.6773 17.8096 16.1689 18.018C15.6689 18.2263 15.1273 18.3346 14.5439 18.3346C13.6939 18.3346 12.7856 18.1346 11.8273 17.7263C10.8689 17.318 9.91061 16.768 8.96061 16.0763C8.00228 15.3763 7.09395 14.6013 6.22728 13.743C5.36895 12.8763 4.59395 11.968 3.90228 11.018C3.21895 10.068 2.66895 9.11797 2.26895 8.1763C1.86895 7.2263 1.66895 6.31797 1.66895 5.4513C1.66895 4.88464 1.76895 4.34297 1.96895 3.84297C2.16895 3.33464 2.48561 2.86797 2.92728 2.4513C3.46061 1.9263 4.04395 1.66797 4.66061 1.66797C4.89395 1.66797 5.12728 1.71797 5.33561 1.81797C5.55228 1.91797 5.74395 2.06797 5.89395 2.28464L7.82728 5.00964C7.97728 5.21797 8.08561 5.40964 8.16061 5.59297C8.23561 5.76797 8.27728 5.94297 8.27728 6.1013C8.27728 6.3013 8.21895 6.5013 8.10228 6.69297C7.99395 6.88464 7.83561 7.08464 7.63561 7.28464L7.00228 7.94297C6.91061 8.03464 6.86895 8.14297 6.86895 8.2763C6.86895 8.34297 6.87728 8.4013 6.89395 8.46797C6.91895 8.53464 6.94395 8.58463 6.96061 8.63463C7.11061 8.90963 7.36895 9.26797 7.73561 9.7013C8.11061 10.1346 8.51061 10.5763 8.94395 11.018C9.39395 11.4596 9.82728 11.868 10.2689 12.243C10.7023 12.6096 11.0606 12.8596 11.3439 13.0096C11.3856 13.0263 11.4356 13.0513 11.4939 13.0763C11.5606 13.1013 11.6273 13.1096 11.7023 13.1096C11.8439 13.1096 11.9523 13.0596 12.0439 12.968L12.6773 12.343C12.8856 12.1346 13.0856 11.9763 13.2773 11.8763C13.4689 11.7596 13.6606 11.7013 13.8689 11.7013C14.0273 11.7013 14.1939 11.7346 14.3773 11.8096C14.5606 11.8846 14.7523 11.993 14.9606 12.1346L17.7189 14.093C17.9356 14.243 18.0856 14.418 18.1773 14.6263C18.2606 14.8346 18.3106 15.043 18.3106 15.2763Z" stroke="#151B33" stroke-width="1.25" stroke-miterlimit="10"/>
</svg>
