<svg width="20" height="20" viewBox="0 0 20 20" fill="none" xmlns="http://www.w3.org/2000/svg">
<path d="M12.7174 18.5422H7.28405C3.19238 18.5422 1.44238 16.7922 1.44238 12.7006V12.5922C1.44238 8.89222 2.90072 7.10888 6.16738 6.80055C6.50072 6.77555 6.81738 7.02555 6.85072 7.36722C6.88405 7.70888 6.63405 8.01722 6.28405 8.05055C3.66738 8.29222 2.69238 9.52555 2.69238 12.6006V12.7089C2.69238 16.1006 3.89238 17.3006 7.28405 17.3006H12.7174C16.109 17.3006 17.309 16.1006 17.309 12.7089V12.6006C17.309 9.50888 16.3174 8.27555 13.6507 8.05055C13.309 8.01722 13.0507 7.71722 13.084 7.37555C13.1174 7.03388 13.409 6.77555 13.759 6.80888C17.0757 7.09222 18.559 8.88388 18.559 12.6089V12.7172C18.559 16.7922 16.809 18.5422 12.7174 18.5422Z" fill="white"/>
<path d="M10 13.0253C9.65833 13.0253 9.375 12.742 9.375 12.4003V1.66699C9.375 1.32533 9.65833 1.04199 10 1.04199C10.3417 1.04199 10.625 1.32533 10.625 1.66699V12.4003C10.625 12.7503 10.3417 13.0253 10 13.0253Z" fill="white"/>
<path d="M9.99954 13.9585C9.84121 13.9585 9.68288 13.9002 9.55788 13.7752L6.76621 10.9835C6.52454 10.7419 6.52454 10.3419 6.76621 10.1002C7.00788 9.85853 7.40788 9.85853 7.64954 10.1002L9.99954 12.4502L12.3495 10.1002C12.5912 9.85853 12.9912 9.85853 13.2329 10.1002C13.4745 10.3419 13.4745 10.7419 13.2329 10.9835L10.4412 13.7752C10.3162 13.9002 10.1579 13.9585 9.99954 13.9585Z" fill="white"/>
</svg>
