<svg width="19" height="14" viewBox="0 0 19 14" fill="none" xmlns="http://www.w3.org/2000/svg">
<path d="M16.6353 4.73761C17.6016 5.75434 17.6016 7.29905 16.6353 8.31578C15.0054 10.0306 12.2063 12.36 9.02669 12.36C5.8471 12.36 3.04794 10.0306 1.41811 8.31578C0.451775 7.29905 0.451774 5.75434 1.41811 4.73761C3.04794 3.0228 5.8471 0.693359 9.02669 0.693359C12.2063 0.693359 15.0054 3.0228 16.6353 4.73761Z" stroke="#072127" stroke-width="1.3875"/>
<path d="M11.5267 6.52669C11.5267 7.9074 10.4074 9.02669 9.02669 9.02669C7.64598 9.02669 6.52669 7.9074 6.52669 6.52669C6.52669 5.14598 7.64598 4.02669 9.02669 4.02669C10.4074 4.02669 11.5267 5.14598 11.5267 6.52669Z" stroke="#072127" stroke-width="1.3875"/>
</svg>
