<svg width="24" height="24" viewBox="0 0 24 24" fill="none" xmlns="http://www.w3.org/2000/svg">
<path d="M12.0039 21C10.7652 21 9.59858 20.7633 8.50391 20.29C7.40925 19.816 6.45591 19.1727 5.64391 18.36C4.83191 17.5473 4.18858 16.594 3.71391 15.5C3.23925 14.406 3.00258 13.2393 3.00391 12C3.00391 10.7573 3.24058 9.58967 3.71391 8.497C4.18791 7.40367 4.83124 6.45133 5.64391 5.64C6.45658 4.82867 7.40991 4.18533 8.50391 3.71C9.59858 3.23667 10.7652 3 12.0039 3C13.2466 3 14.4142 3.23667 15.5069 3.71C16.6002 4.184 17.5529 4.82733 18.3649 5.64C19.1769 6.45267 19.8199 7.405 20.2939 8.497C20.7672 9.59033 21.0039 10.758 21.0039 12C21.0039 13.2387 20.7672 14.4053 20.2939 15.5C19.8199 16.5947 19.1766 17.548 18.3639 18.36C17.5512 19.172 16.5989 19.8153 15.5069 20.29C14.4149 20.7647 13.2472 21.0013 12.0039 21ZM12.0039 20.008C12.5906 19.254 13.0746 18.5137 13.4559 17.787C13.8366 17.0603 14.1462 16.247 14.3849 15.347L9.62291 15.347C9.88758 16.2977 10.2036 17.1363 10.5709 17.863C10.9389 18.5897 11.4166 19.3047 12.0039 20.008ZM10.7309 19.858C10.2642 19.308 9.83825 18.628 9.45291 17.818C9.06758 17.0087 8.78091 16.1847 8.59291 15.346H4.75791C5.33125 16.5893 6.14358 17.6093 7.19491 18.406C8.24691 19.202 9.42558 19.686 10.7309 19.858ZM13.2769 19.858C14.5822 19.686 15.7609 19.202 16.8129 18.406C17.8642 17.6093 18.6766 16.5893 19.2499 15.346H15.4159C15.1626 16.1973 14.8436 17.0277 14.4589 17.837C14.0736 18.647 13.6796 19.3213 13.2769 19.858ZM4.34991 14.347H8.38491C8.30891 13.9363 8.25558 13.5363 8.22491 13.147C8.19291 12.7583 8.17691 12.376 8.17691 12C8.17691 11.624 8.19258 11.2417 8.22391 10.853C8.25525 10.4643 8.30858 10.0643 8.38391 9.653H4.35091C4.24225 9.99967 4.15725 10.3773 4.09591 10.786C4.03458 11.194 4.00391 11.5987 4.00391 12C4.00391 12.4013 4.03425 12.8063 4.09491 13.215C4.15558 13.6237 4.24058 14.0007 4.34991 14.346M9.38491 14.346L14.6229 14.346C14.6989 13.936 14.7522 13.5427 14.7829 13.166C14.8149 12.79 14.8309 12.4013 14.8309 12C14.8309 11.5987 14.8152 11.21 14.7839 10.834C14.7526 10.458 14.6992 10.0647 14.6239 9.654H9.38391C9.30858 10.064 9.25525 10.4573 9.22391 10.834C9.19258 11.21 9.17691 11.5987 9.17691 12C9.17691 12.4013 9.19258 12.79 9.22391 13.166C9.25525 13.542 9.30958 13.9353 9.38491 14.346ZM15.6239 14.346H19.6579C19.7666 14 19.8516 13.623 19.9129 13.215C19.9736 12.8063 20.0039 12.4013 20.0039 12C20.0039 11.5987 19.9736 11.1937 19.9129 10.785C19.8522 10.3763 19.7672 9.99933 19.6579 9.654L15.6229 9.654C15.6989 10.064 15.7522 10.4637 15.7829 10.853C15.8149 11.2423 15.8309 11.6247 15.8309 12C15.8309 12.3753 15.8152 12.7577 15.7839 13.147C15.7526 13.5363 15.6992 13.9363 15.6239 14.347M15.4159 8.654L19.2499 8.654C18.6639 7.38467 17.8612 6.36467 16.8419 5.594C15.8226 4.82333 14.6342 4.333 13.2769 4.123C13.7436 4.737 14.1632 5.43933 14.5359 6.23C14.9086 7.02 15.2019 7.828 15.4159 8.654ZM9.62291 8.654H14.3849C14.1209 7.71533 13.7952 6.86667 13.4079 6.108C13.0206 5.34933 12.5526 4.644 12.0039 3.992C11.4552 4.64333 10.9872 5.34867 10.5999 6.108C10.2126 6.86733 9.88625 7.716 9.62291 8.654ZM4.75891 8.654H8.59291C8.80691 7.82867 9.10024 7.02067 9.47291 6.23C9.84558 5.43933 10.2652 4.737 10.7319 4.123C9.36258 4.33367 8.17125 4.827 7.15791 5.603C6.14458 6.38033 5.34458 7.397 4.75791 8.653" fill="#072127"/>
</svg>
