<svg width="14" height="13" viewBox="0 0 14 13" fill="none" xmlns="http://www.w3.org/2000/svg">
<path fill-rule="evenodd" clip-rule="evenodd" d="M13.2937 7.77558V12.6846H10.4272V8.09807C10.4272 6.95143 10.033 6.16313 8.99387 6.16313C8.20556 6.16313 7.73974 6.70061 7.52475 7.20226C7.45309 7.38142 7.41725 7.63225 7.41725 7.88307V12.6846H4.55068C4.55068 12.6846 4.58652 4.909 4.55068 4.1207H7.41725V5.33899C7.41725 5.33899 7.41725 5.37482 7.38142 5.37482H7.41725V5.33899C7.81141 4.76568 8.45639 3.9057 9.99717 3.9057C11.8604 3.9057 13.2937 5.15983 13.2937 7.77558ZM1.61245 0C0.644976 0 0 0.644978 0 1.46912C0 2.29325 0.609146 2.93824 1.57661 2.93824H1.61245C2.61575 2.93824 3.22489 2.29326 3.22489 1.46912C3.18906 0.644978 2.57991 0 1.61245 0ZM0.143324 12.6846H2.97407V4.1207H0.143324V12.6846Z" fill="#072127"/>
</svg>
