<svg width="38" height="37" viewBox="0 0 38 37" fill="none" xmlns="http://www.w3.org/2000/svg">
<path d="M34.9805 23.2753V17.0689L36.3137 16.2837C36.727 16.0403 36.9641 15.6365 36.9641 15.1759C36.9641 14.7152 36.727 14.3115 36.3137 14.0681L19.6425 4.24991C19.0767 3.91669 18.2233 3.91669 17.6575 4.24992L0.986288 14.0681C0.572988 14.3114 0.335938 14.7152 0.335938 15.1759C0.335933 15.6365 0.572977 16.0403 0.986273 16.2837L7.12903 19.9014V27.5693C7.11261 27.6729 7.10423 27.7784 7.10423 27.8856C7.10423 29.2007 8.3405 30.2469 10.7787 30.9951C12.8902 31.6431 15.6872 32 18.6545 32C21.6217 32 24.4187 31.6431 26.5302 30.9951C28.9684 30.2469 30.2047 29.2007 30.2047 27.8856C30.2047 27.7784 30.1963 27.6729 30.1799 27.5693V19.8961L33.7154 17.8139V23.2753C32.3707 23.6268 31.36 25.0744 31.36 26.8021C31.36 28.7918 32.7004 30.4105 34.348 30.4105C35.9955 30.4105 37.3359 28.7918 37.3359 26.8021C37.3359 25.0744 36.3253 23.6268 34.9805 23.2753ZM28.9148 25.8408C28.3222 25.4374 27.5266 25.0819 26.5302 24.7761C24.4187 24.1281 21.6217 23.7712 18.6545 23.7712C15.6872 23.7712 12.8902 24.1281 10.7787 24.7761C9.78229 25.0819 8.98672 25.4374 8.39412 25.8408V16.8437C8.39412 16.757 8.50872 16.5096 8.94244 16.1936C9.43011 15.8383 10.1773 15.4998 11.1032 15.2148C13.1092 14.5972 15.791 14.2571 18.6545 14.2571C21.518 14.2571 24.1998 14.5972 26.2058 15.2148C27.1317 15.4998 27.8788 15.8383 28.3665 16.1936C28.8002 16.5096 28.9148 16.757 28.9148 16.8437L28.9148 25.8408ZM28.3884 28.535C27.8985 28.8905 27.1482 29.2291 26.2187 29.5144C24.206 30.132 21.5197 30.4722 18.6545 30.4722C15.7893 30.4722 13.1029 30.132 11.0903 29.5144C10.1608 29.2291 9.41046 28.8905 8.92051 28.535C8.48452 28.2186 8.36932 27.9719 8.36932 27.8856H8.39412V27.7923C8.44695 27.6716 8.59349 27.4735 8.92051 27.2362C9.41046 26.8808 10.1608 26.5421 11.0903 26.2568C13.1029 25.6392 15.7893 25.299 18.6545 25.299C21.5197 25.299 24.206 25.6392 26.2187 26.2568C27.1482 26.5421 27.8985 26.8808 28.3884 27.2362C28.7154 27.4735 28.862 27.6716 28.9148 27.7923V27.8856H28.9396C28.9396 27.9719 28.8244 28.2186 28.3884 28.535ZM26.5183 13.7343C24.4131 13.0862 21.6203 12.7293 18.6545 12.7293C15.6886 12.7293 12.8958 13.0862 10.7906 13.7343C8.36098 14.4823 7.12904 15.5285 7.12904 16.8437V18.2016L1.99141 15.1759L18.212 5.62311C18.429 5.49536 18.871 5.49536 19.088 5.62311L35.3086 15.1759L30.1799 18.1963V16.8437C30.1799 15.5285 28.948 14.4823 26.5183 13.7343ZM34.348 28.8827C33.398 28.8827 32.6251 27.9494 32.6251 26.8021C32.6251 25.6548 33.398 24.7215 34.348 24.7215C35.298 24.7215 36.0709 25.6548 36.0709 26.8021C36.0709 27.9494 35.298 28.8827 34.348 28.8827Z" fill="black"/>
</svg>
