<svg width="34" height="34" viewBox="0 0 34 34" fill="none" xmlns="http://www.w3.org/2000/svg">
<g clip-path="url(#clip0_1_7769)">
<path d="M27.4875 10.0889C27.8355 12.6198 27.2898 15.0162 26.1193 16.9855C25.5973 17.8712 25.1149 18.7729 24.7748 19.7456L22.8609 26.3654C22.6315 27.1641 21.9039 27.7099 21.0735 27.7099H12.9036C12.0732 27.7099 11.3456 27.1641 11.1162 26.3654L9.21018 19.7615C8.86219 18.7887 8.37975 17.8712 7.84986 16.9775C6.92452 15.4037 6.38672 13.5688 6.38672 11.6074C6.38672 5.35945 11.7885 0.368961 18.1709 1.06494C22.932 1.57111 26.8311 5.34363 27.4875 10.0889Z" stroke="#231F20" stroke-width="1.58177" stroke-miterlimit="10" stroke-linecap="round" stroke-linejoin="round"/>
<path d="M19.4752 33.1509H14.3898C13.7097 33.1509 13.1165 32.6922 12.9504 32.0358L12.5312 30.4224H21.3417L20.9225 32.0358C20.7485 32.6922 20.1554 33.1509 19.4752 33.1509Z" stroke="#231F20" stroke-width="1.58177" stroke-miterlimit="10" stroke-linecap="round" stroke-linejoin="round"/>
<path d="M18.8653 35.4681H14.9979C14.4759 35.4681 14.0251 35.1122 13.9065 34.606L13.5664 33.1587H20.2889L19.9489 34.606C19.8381 35.1043 19.3794 35.4681 18.8653 35.4681Z" stroke="#231F20" stroke-width="1.58177" stroke-miterlimit="10" stroke-linecap="round" stroke-linejoin="round"/>
<path d="M20.256 30.4302H13.6047C12.9245 30.4302 12.3313 29.9715 12.1653 29.3151L11.7461 27.7017H22.1225L21.7033 29.3151C21.5293 29.9715 20.9362 30.4302 20.256 30.4302Z" stroke="#231F20" stroke-width="1.58177" stroke-miterlimit="10" stroke-linecap="round" stroke-linejoin="round"/>
<path d="M13.7747 4.74219C13.7747 4.74219 10.3977 5.71498 9.82031 10.0095" stroke="#231F20" stroke-width="1.58177" stroke-miterlimit="10" stroke-linecap="round" stroke-linejoin="round"/>
</g>
<defs>
<clipPath id="clip0_1_7769">
<rect width="33.98" height="33.98" fill="white"/>
</clipPath>
</defs>
</svg>
