<svg width="33" height="33" viewBox="0 0 33 33" fill="none" xmlns="http://www.w3.org/2000/svg">
<path d="M11.6836 26.124H10.9961C5.49609 26.124 2.74609 24.749 2.74609 17.874V10.999C2.74609 5.49902 5.49609 2.74902 10.9961 2.74902H21.9961C27.4961 2.74902 30.2461 5.49902 30.2461 10.999V17.874C30.2461 23.374 27.4961 26.124 21.9961 26.124H21.3086C20.8823 26.124 20.4698 26.3303 20.2086 26.674L18.1461 29.424C17.2386 30.634 15.7536 30.634 14.8461 29.424L12.7836 26.674C12.5636 26.3715 12.0548 26.124 11.6836 26.124Z" stroke="#151B33" stroke-width="1.5" stroke-miterlimit="10" stroke-linecap="round" stroke-linejoin="round"/>
<path d="M21.9924 15.125H22.0048" stroke="#151B33" stroke-width="3" stroke-linecap="round" stroke-linejoin="round"/>
<path d="M16.4964 15.125H16.5087" stroke="#151B33" stroke-width="3" stroke-linecap="round" stroke-linejoin="round"/>
<path d="M10.9924 15.125H11.0048" stroke="#151B33" stroke-width="3" stroke-linecap="round" stroke-linejoin="round"/>
</svg>
