<svg width="33" height="33" viewBox="0 0 33 33" fill="none" xmlns="http://www.w3.org/2000/svg">
<path d="M9.23201 33C8.2297 32.9989 7.25518 32.6707 6.45668 32.0651C5.78384 31.549 5.25348 30.8702 4.91549 30.0927C4.5775 29.3152 4.44301 28.4645 4.52468 27.6208L5.07668 21.8124C5.08302 21.7377 5.07405 21.6624 5.05033 21.5913C5.0266 21.5202 4.98861 21.4546 4.93868 21.3986L1.16668 17.0462C0.621922 16.3947 0.251709 15.6155 0.0907856 14.7818C-0.0701375 13.9481 -0.0164944 13.0872 0.246681 12.28C0.491953 11.4757 0.943784 10.7497 1.55717 10.1742C2.17055 9.59881 2.92407 9.19406 3.74268 9.00031L9.23201 7.75894C9.37138 7.71402 9.49069 7.62187 9.56934 7.49841L12.4213 2.47165C12.8102 1.7264 13.396 1.10194 14.1151 0.666176C14.8342 0.230408 15.6591 0 16.5 0C17.3409 0 18.1658 0.230408 18.8849 0.666176C19.604 1.10194 20.1898 1.7264 20.5787 2.47165L23.4307 7.49841C23.5093 7.62187 23.6286 7.71402 23.768 7.75894L29.2573 9.00031C30.0759 9.19406 30.8294 9.59881 31.4428 10.1742C32.0562 10.7497 32.508 11.4757 32.7533 12.28C33.0165 13.0872 33.0701 13.9481 32.9092 14.7818C32.7483 15.6155 32.3781 16.3947 31.8333 17.0462L28.1073 21.3986C28.0574 21.4546 28.0194 21.5202 27.9957 21.5913C27.9719 21.6624 27.963 21.7377 27.9693 21.8124L28.5213 27.6208C28.603 28.4645 28.4685 29.3152 28.1305 30.0927C27.7925 30.8702 27.2622 31.549 26.5893 32.0651C25.9289 32.5648 25.1458 32.8769 24.3227 32.9686C23.4996 33.0603 22.6669 32.9282 21.9127 32.5862L16.7147 30.318C16.6472 30.2876 16.574 30.2718 16.5 30.2718C16.426 30.2718 16.3528 30.2876 16.2853 30.318L11.1333 32.5862C10.5363 32.8581 9.88805 32.9992 9.23201 33ZM16.5 2.25709C16.0419 2.26033 15.593 2.38558 15.1995 2.61994C14.806 2.8543 14.4822 3.1893 14.2613 3.59041L11.4093 8.61717C11.2309 8.94131 10.9855 9.22376 10.6894 9.44573C10.3933 9.6677 10.0533 9.82409 9.69201 9.90451L4.23334 11.1612C3.77745 11.2575 3.35596 11.4748 3.01325 11.7904C2.67055 12.1059 2.41932 12.508 2.28601 12.9543C2.14222 13.3993 2.11463 13.8737 2.20588 14.3323C2.29712 14.791 2.50416 15.2187 2.80735 15.5749L6.54868 19.9274C7.03477 20.5141 7.27147 21.2678 7.20801 22.027L6.65601 27.8353C6.60027 28.3054 6.6686 28.782 6.85421 29.2175C7.03981 29.6531 7.33623 30.0325 7.71401 30.318C8.07411 30.5945 8.50275 30.7677 8.95389 30.819C9.40504 30.8703 9.86165 30.7978 10.2747 30.6092L15.442 28.2798C15.7741 28.1281 16.1349 28.0496 16.5 28.0496C16.8651 28.0496 17.2259 28.1281 17.558 28.2798L22.7253 30.6092C23.1384 30.7978 23.595 30.8703 24.0461 30.819C24.4973 30.7677 24.9259 30.5945 25.286 30.318C25.6566 30.0366 25.9486 29.6647 26.1338 29.238C26.3191 28.8112 26.3915 28.344 26.344 27.8813L25.792 22.0729C25.7285 21.3138 25.9652 20.5601 26.4513 19.9733L30.1927 15.6209C30.4958 15.2647 30.7029 14.837 30.7941 14.3783C30.8854 13.9196 30.8578 13.4453 30.714 13.0003C30.5878 12.5455 30.3398 12.1338 29.9966 11.8097C29.6534 11.4856 29.2281 11.2613 28.7667 11.1612L23.262 9.90451C22.9007 9.82409 22.5607 9.6677 22.2646 9.44573C21.9685 9.22376 21.7231 8.94131 21.5447 8.61717L18.7387 3.59041C18.5178 3.1893 18.194 2.8543 17.8005 2.61994C17.407 2.38558 16.9581 2.26033 16.5 2.25709Z" fill="#072127"/>
</svg>
