<svg width="20" height="20" viewBox="0 0 20 20" fill="none" xmlns="http://www.w3.org/2000/svg">
<path d="M12.1083 7.8916L7.8916 12.1083C7.34994 11.5666 7.0166 10.8249 7.0166 9.99993C7.0166 8.34993 8.34993 7.0166 9.99993 7.0166C10.8249 7.0166 11.5666 7.34994 12.1083 7.8916Z" stroke="#151B33" stroke-width="1.5" stroke-linecap="round" stroke-linejoin="round"/>
<path d="M14.8499 4.80791C13.3915 3.70791 11.7249 3.10791 9.99987 3.10791C7.0582 3.10791 4.31654 4.84124 2.4082 7.84124C1.6582 9.01624 1.6582 10.9912 2.4082 12.1662C3.06654 13.1996 3.8332 14.0912 4.66654 14.8079" stroke="#151B33" stroke-width="1.5" stroke-linecap="round" stroke-linejoin="round"/>
<path d="M7.0166 16.2753C7.9666 16.6753 8.97493 16.892 9.99993 16.892C12.9416 16.892 15.6833 15.1586 17.5916 12.1586C18.3416 10.9836 18.3416 9.00864 17.5916 7.83364C17.3166 7.40031 17.0166 6.99198 16.7083 6.60864" stroke="#151B33" stroke-width="1.5" stroke-linecap="round" stroke-linejoin="round"/>
<path d="M12.9154 10.5835C12.6988 11.7585 11.7404 12.7168 10.5654 12.9335" stroke="#151B33" stroke-width="1.5" stroke-linecap="round" stroke-linejoin="round"/>
<path d="M7.88418 12.1082L1.65918 18.3332" stroke="#151B33" stroke-width="1.5" stroke-linecap="round" stroke-linejoin="round"/>
<path d="M18.3383 1.66699L12.1133 7.89199" stroke="#151B33" stroke-width="1.5" stroke-linecap="round" stroke-linejoin="round"/>
</svg>
