<svg width="171" height="171" viewBox="0 0 171 171" fill="none" xmlns="http://www.w3.org/2000/svg">
<g opacity="0.14" clip-path="url(#clip0_1_7546)">
<path d="M149.928 70.6791L92.1073 43.9004C91.8619 43.7834 91.5791 43.7683 91.3204 43.8513L30.6189 63.2337C30.1923 63.3697 29.8933 63.7537 29.865 64.2006C29.8376 64.647 30.0871 65.0652 30.4935 65.2531L43.4701 71.2591L38.5532 89.6095C35.4288 89.3119 32.4452 91.2868 31.6064 94.4171C31.1623 96.0747 31.4184 97.7979 32.241 99.2785L27.3912 107.991C27.2287 108.283 27.2101 108.634 27.3404 108.942C27.4709 109.25 27.7363 109.481 28.0592 109.568L29.4093 109.929L28.4336 113.571C28.2784 114.15 28.6223 114.745 29.2015 114.901C29.7806 115.056 30.3763 114.712 30.5315 114.133L31.5071 110.491L32.8607 110.854L31.885 114.495C31.7298 115.075 32.0737 115.67 32.6529 115.825C33.2321 115.981 33.8277 115.637 33.9829 115.058L34.9586 111.416L36.3128 111.779L35.3371 115.42C35.182 116 35.5259 116.595 36.105 116.75C36.6842 116.906 37.2798 116.562 37.435 115.982L38.4107 112.341L39.7607 112.703C40.0838 112.79 40.4288 112.723 40.6959 112.521C40.963 112.319 41.1223 112.006 41.1277 111.671L41.2832 101.702C42.735 100.833 43.8195 99.4674 44.264 97.8087C45.1028 94.6783 43.5058 91.476 40.6511 90.1716L45.4705 72.185L57.0727 77.555L55.4805 103.069C55.4801 103.074 55.4834 103.079 55.4832 103.084C55.4754 103.244 55.5057 103.4 55.5654 103.546C55.5815 103.585 55.6098 103.615 55.6304 103.652C55.686 103.753 55.7517 103.844 55.8381 103.924C55.8559 103.941 55.8623 103.966 55.8814 103.981C55.9158 104.009 55.9594 104.016 55.9962 104.04C56.0368 104.065 56.0663 104.103 56.1112 104.123C60.9695 106.353 65.8723 108.13 70.8125 109.454C86.7596 113.727 103.094 113.276 119.55 108.082C119.604 108.065 119.643 108.028 119.692 108.003C119.725 107.987 119.764 107.989 119.795 107.969C119.816 107.957 119.825 107.933 119.845 107.919C119.941 107.85 120.018 107.768 120.085 107.674C120.11 107.64 120.142 107.614 120.163 107.577C120.24 107.44 120.29 107.289 120.302 107.13C120.302 107.124 120.306 107.12 120.307 107.115L121.899 81.6018L149.802 72.699C150.229 72.563 150.527 72.179 150.556 71.7321C150.583 71.285 150.335 70.8671 149.928 70.6791ZM29.9666 107.83L33.7041 101.115C35.213 102.354 37.1714 102.878 39.0974 102.561L38.9775 110.245L29.9666 107.83ZM42.1661 97.2467C41.8259 98.5162 40.9472 99.5558 39.7587 100.099C38.3456 100.738 36.6943 100.549 35.4496 99.7081C35.035 99.4276 34.6652 99.0741 34.3635 98.6548C33.6046 97.587 33.3644 96.2476 33.7043 94.9794C34.3293 92.6465 36.7356 91.2573 39.0684 91.8824C41.4012 92.5075 42.7912 94.9139 42.1661 97.2467ZM59.8918 103.395C78.8525 98.6976 97.6593 99.8703 115.888 106.89C96.8893 112.206 78.0796 111.031 59.8918 103.395ZM57.7426 101.69L59.2863 76.9544C59.2864 76.9529 59.2874 76.9517 59.2875 76.9502L59.6587 70.987C72.4958 67.1143 85.2556 66.1583 97.8078 68.11C105.339 69.2811 112.796 71.4988 120.149 74.7615L119.777 80.7249C119.776 80.7256 119.777 80.7262 119.777 80.727L118.233 105.464C98.5709 97.5277 78.2374 96.2594 57.7426 101.69ZM122.044 79.2756L122.364 74.1465C122.392 73.6957 122.139 73.2751 121.728 73.089C116.592 70.7635 111.407 68.936 106.18 67.6072C90.501 63.6202 74.458 64.1221 58.3005 69.1315C57.8694 69.2649 57.5663 69.6506 57.5381 70.1005L57.218 75.2296L46.041 70.0565L47.251 65.5407C47.4062 64.9615 47.0623 64.3659 46.4832 64.2107C45.904 64.0555 45.3084 64.3994 45.1532 64.9785L44.0406 69.1308L33.9369 64.4544L91.5786 46.0492L146.484 71.4773L122.044 79.2756Z" fill="black"/>
<path d="M60.9629 126.451L62.8984 119.228C63.0535 118.649 62.7096 118.053 62.1305 117.898C61.5513 117.743 60.9557 118.086 60.8005 118.666L58.8651 125.889C58.7099 126.468 59.0538 127.064 59.6329 127.219C60.2121 127.374 60.8077 127.03 60.9629 126.451Z" fill="black"/>
<path d="M75.9056 130.982L78.4882 121.343C78.6434 120.764 78.2995 120.169 77.7203 120.013C77.1412 119.858 76.5455 120.202 76.3903 120.781L73.8077 130.42C73.6525 130.999 73.9964 131.595 74.5756 131.75C75.1547 131.905 75.7504 131.561 75.9056 130.982Z" fill="black"/>
<path d="M87.3089 136.672L89.6015 128.115C89.7567 127.536 89.4128 126.941 88.8336 126.785C88.2545 126.63 87.6588 126.974 87.5036 127.553L85.211 136.109C85.0558 136.689 85.3997 137.284 85.9789 137.439C86.558 137.595 87.1537 137.251 87.3089 136.672Z" fill="black"/>
<path d="M102.504 138.108L105.508 126.896C105.663 126.317 105.319 125.722 104.74 125.566C104.161 125.411 103.565 125.755 103.41 126.334L100.406 137.546C100.25 138.125 100.594 138.721 101.174 138.876C101.753 139.031 102.348 138.687 102.504 138.108Z" fill="black"/>
<path d="M123.816 121.69L121.328 124.53L117.582 124.085C117.172 124.036 116.769 124.224 116.544 124.571C116.318 124.917 116.309 125.361 116.519 125.717L118.443 128.963L116.863 132.394C116.69 132.77 116.746 133.211 117.006 133.532C117.266 133.854 117.687 133.999 118.09 133.907L121.775 133.071L124.549 135.638C124.681 135.76 124.838 135.845 125.005 135.89C125.222 135.948 125.457 135.938 125.675 135.855C126.061 135.707 126.33 135.353 126.368 134.941L126.552 132.957L126.715 131.179L130.004 129.33C130.364 129.127 130.578 128.738 130.556 128.325C130.534 127.912 130.28 127.548 129.9 127.385L126.433 125.898L125.698 122.194C125.536 121.382 124.362 121.068 123.816 121.69ZM124.414 126.882C124.484 127.233 124.722 127.527 125.051 127.668L127.022 128.514L125.153 129.564C124.841 129.74 124.636 130.057 124.603 130.413L124.408 132.548L122.83 131.088C122.699 130.967 122.542 130.881 122.374 130.836C122.206 130.791 122.027 130.787 121.852 130.826L119.756 131.302L120.655 129.355C120.804 129.03 120.785 128.653 120.603 128.345L119.509 126.5L121.639 126.753C121.995 126.796 122.348 126.66 122.584 126.391L123.997 124.779L124.414 126.882Z" fill="black"/>
<path d="M117.243 31.9698C117.221 31.557 116.967 31.1925 116.587 31.0299L113.121 29.5425L112.386 25.8388C112.224 25.027 111.049 24.7123 110.504 25.3345L108.016 28.1747L104.269 27.7293C103.859 27.6802 103.457 27.8688 103.231 28.2154C103.005 28.5618 102.996 29.0058 103.207 29.3617L105.131 32.6065L103.551 36.0389C103.377 36.4148 103.433 36.8558 103.694 37.1766C103.954 37.4975 104.376 37.6419 104.777 37.5518L108.463 36.7153L111.236 39.2824C111.368 39.4042 111.525 39.4895 111.693 39.5343C111.91 39.5925 112.144 39.5828 112.362 39.4992C112.748 39.3515 113.016 38.9974 113.055 38.5861L113.24 36.6024C113.24 36.6017 113.24 36.601 113.24 36.6003L113.402 34.8228L116.691 32.9746C117.052 32.7719 117.266 32.3829 117.243 31.9698ZM111.841 33.2086C111.529 33.3835 111.324 33.7008 111.291 34.0567L111.096 36.1936L109.518 34.7328C109.387 34.6113 109.229 34.526 109.062 34.481C108.894 34.436 108.715 34.4312 108.54 34.4708L106.444 34.9463L107.343 32.998C107.492 32.6741 107.473 32.2966 107.29 31.9892L106.197 30.1452L108.328 30.3986C108.683 30.441 109.037 30.3051 109.272 30.0362L110.684 28.4244L111.102 30.5264C111.172 30.8774 111.41 31.1718 111.739 31.3125L113.71 32.1584L111.841 33.2086Z" fill="black"/>
<path d="M132.998 94.375C134.887 94.8811 135.97 96.7568 135.464 98.6457C135.309 99.2249 135.653 99.8205 136.232 99.9757C136.811 100.131 137.407 99.787 137.562 99.2078C138.068 97.3189 139.944 96.2363 141.833 96.7424C142.412 96.8976 143.008 96.5537 143.163 95.9746C143.318 95.3954 142.975 94.7997 142.395 94.6446C140.507 94.1384 139.423 92.2621 139.929 90.3731C140.085 89.794 139.741 89.1983 139.161 89.0431C138.582 88.888 137.987 89.2319 137.831 89.811C137.325 91.6999 135.449 92.7833 133.56 92.2771C132.981 92.1219 132.385 92.4658 132.23 93.045C132.075 93.6241 132.419 94.2198 132.998 94.375ZM138.007 93.3509C138.213 93.881 138.499 94.3772 138.855 94.8203C138.325 95.0258 137.829 95.3116 137.386 95.6686C137.181 95.1378 136.894 94.6423 136.538 94.1992C137.068 93.9936 137.564 93.7072 138.007 93.3509Z" fill="black"/>
<path d="M23.3297 91.9457C23.9089 92.1009 24.5046 91.757 24.6597 91.1778C25.1659 89.2889 27.0422 88.2056 28.9312 88.7117C29.5103 88.8669 30.106 88.523 30.2611 87.9438C30.4163 87.3647 30.0724 86.769 29.4933 86.6138C27.6044 86.1077 26.5208 84.232 27.027 82.3431C27.1822 81.764 26.8383 81.1683 26.2591 81.0131C25.68 80.8579 25.0843 81.2018 24.9291 81.781C24.423 83.6699 22.5468 84.7525 20.6579 84.2464C20.0787 84.0912 19.4831 84.4351 19.3279 85.0143C19.1727 85.5934 19.5166 86.1891 20.0958 86.3443C21.9847 86.8504 23.068 88.7268 22.5619 90.6157C22.4067 91.1948 22.7506 91.7905 23.3297 91.9457ZM23.6357 86.1685C24.1658 85.963 24.6618 85.6772 25.105 85.3202C25.3104 85.851 25.5971 86.3465 25.9534 86.7896C25.4232 86.9953 24.9271 87.2817 24.484 87.6381C24.2784 87.1079 23.9919 86.6118 23.6357 86.1685Z" fill="black"/>
<path d="M64.0087 31.5036C64.1639 30.9244 63.8199 30.3288 63.2408 30.1736C62.6616 30.0184 62.066 30.3623 61.9108 30.9415C61.2307 33.4798 58.7101 34.935 56.1718 34.2549C55.5926 34.0997 54.997 34.4436 54.8418 35.0228C54.6866 35.6019 55.0305 36.1976 55.6097 36.3528C58.1479 37.0329 59.6032 39.5535 58.9231 42.0918C58.7679 42.6709 59.1118 43.2666 59.691 43.4218C60.2701 43.577 60.8658 43.2331 61.0209 42.6539C61.7011 40.1156 64.2217 38.6604 66.76 39.3405C67.3391 39.4957 67.9348 39.1518 68.09 38.5726C68.2452 37.9935 67.9012 37.3978 67.3221 37.2426C64.7838 36.5625 63.3285 34.0419 64.0087 31.5036ZM60.9435 38.7473C60.6496 37.8305 60.1632 36.988 59.5163 36.2753C60.4331 35.9815 61.2756 35.495 61.9883 34.8481C62.2821 35.7649 62.7685 36.6074 63.4155 37.3201C62.4988 37.614 61.6563 38.1004 60.9435 38.7473Z" fill="black"/>
</g>
<defs>
<clipPath id="clip0_1_7546">
<rect width="139" height="139" fill="white" transform="translate(35.9761) rotate(15)"/>
</clipPath>
</defs>
</svg>
